<svg version="1.0" xmlns="http://www.w3.org/2000/svg" width="900" height="1060" viewBox="0 0 675 795"><g fill="#ee579e"><path d="m295.5 5.3-2.7 2.2.2 28.5c0 16.8.5 28.9 1.1 29.6.5.6 3.2 1.4 6 1.6 2.7.3 5.6 1.1 6.2 1.7.8.8 1.2 5 1.2 12.1v11l34.8.2 34.7.3v-11c0-6.1.4-11.6.9-12.4.5-.7 2.9-1.6 5.5-1.8 2.5-.3 5.1-1.2 5.7-1.9.8-1 1.1-10.2 1.1-30.1 0-28.5 0-28.7-2.2-30.5-2.1-1.7-5.3-1.8-46.1-1.8h-43.8l-2.6 2.3zM93.5 120c-2.1 1.6-4.1 3-4.6 3-.4 0-2.9 2-5.6 4.5-2.6 2.4-7.9 6.9-11.8 9.9-11.1 8.7-16.3 13-22.2 18.3-2 1.8-4 3.3-4.4 3.3-1.3 0-1.1 2.9.3 4.6.7.9 2.5 2.8 3.9 4.2 3.6 3.8 11.2 13.2 13.2 16.4 1.9 3 4.1 3.5 8.1 1.6 4.1-1.8 10.1.4 11.5 4.2.7 2.2 1.6 3 3.5 3 1.5 0 2.7-.7 3-1.8.4-.9 4-4.4 8.2-7.7 4.1-3.3 8.9-7.2 10.6-8.8 1.7-1.5 3.4-2.7 3.8-2.7.4 0 2.7-1.8 5.1-4.1 2.4-2.2 5.4-4.5 6.7-4.9 3.3-1.4 2.7-3.9-1.3-5.6-3.4-1.4-3.5-1.6-3.5-6.9 0-4.7.3-5.7 2.5-7.1 1.4-.9 2.4-2 2.3-2.4-.4-1-7.8-9.6-13.1-15.3-2.2-2.2-4.6-5.1-5.4-6.4-2.1-3.2-6.2-3-10.8.7zm484.4.2c-1.7 1.8-4.1 4.9-5.4 6.8-1.2 1.9-4.3 5.7-6.9 8.3-4.1 4.3-4.4 5.1-3.3 6.9 3.2 5.4 3.7 6.5 3.7 9.5 0 2.5-.9 4.1-4 6.9-4.7 4.4-5 5.9-1.2 7.8 1.5.8 5 3.5 7.7 6 2.8 2.5 5.3 4.6 5.7 4.6.4 0 3 2.1 5.8 4.7 2.9 2.7 6 5.3 7.1 5.8 1 .6 3.3 2.9 5 5.3 2.8 3.8 5.9 5.6 5.9 3.4 0-.5 1.1-2.2 2.5-3.7 1.3-1.6 2.5-3.8 2.7-5 .3-1.7 1-2 4.8-1.8 2.5.1 5.9.4 7.7.8 2.8.6 3.4.3 6-3.2 1.5-2.1 3.6-4.7 4.6-5.8 9.3-10 11.7-13.2 11.7-16 0-3.6 0-3.6-22.5-21.5-9.8-7.8-13.8-11-17.3-14-11.8-10-15.4-11-20.3-5.8zM310 127.5c-13.6.8-22 1.7-25.1 2.8-2.5.9-7.9 2-12 2.3-4.1.4-9.3 1.5-11.5 2.5-2.3.9-6.8 2-10 2.4-3.3.4-7.4 1.6-9.2 2.6-1.8 1-5.2 2.2-7.5 2.5-2.3.4-5.5 1.5-7.2 2.4-1.6 1-4.8 2.1-7 2.5-2.2.4-5.1 1.5-6.5 2.5-1.4.9-4.1 2.1-6 2.5-1.9.4-4.6 1.6-5.9 2.6-1.2 1-3.9 2.1-6 2.5-2 .4-4.9 1.7-6.4 3-1.6 1.3-3.7 2.4-4.7 2.4-.9 0-2.4.7-3.1 1.6-.8.9-3.2 2.5-5.4 3.6-6.9 3.3-9.9 5-12 6.9-1.1.9-3.2 2.1-4.8 2.4-1.5.4-3.3 1.6-4 2.6-.7 1-2.4 2.3-3.8 2.9-1.3.6-4.2 2.4-6.4 4.1-2.2 1.6-5.1 3.8-6.6 4.7-10.5 7-45.7 39.7-54.7 50.9-5.2 6.4-7.2 9.1-7.2 9.8 0 .4-1.3 2.3-3 4.2-1.6 1.8-3 3.8-3 4.3 0 .6-.7 1-1.5 1s-1.5.4-1.5.9c0 .4-1.3 2.5-3 4.6-1.6 2.1-3 4.6-3 5.6s-.8 2.4-1.8 3.1c-2 1.5-6.6 8.4-7.6 11.5-.4 1.1-1.8 3.3-3.1 4.7-1.4 1.5-2.5 3.7-2.5 5 0 1.2-1.1 3.2-2.5 4.4-1.4 1.2-2.5 3.1-2.5 4.3 0 1.2-1.1 3.4-2.5 5.1-1.4 1.6-2.5 4.2-2.5 5.8 0 1.8-.8 3.4-2 4.3-1.2.9-2.3 3.1-2.7 5.3-.3 2.2-1.4 4.6-2.3 5.6-.9.9-2 3.5-2.4 5.9-.4 2.4-1.5 5.7-2.5 7.4-1 1.6-2.2 5.1-2.5 7.7-.4 2.6-1.5 5.7-2.5 7-1 1.3-2.1 4.9-2.5 8-.3 3.1-1.5 7.2-2.5 9-1.2 2.1-2.1 6.3-2.5 11.8-.3 4.7-1.5 10.7-2.5 13.5-2.2 5.8-4.6 36.3-4.6 58 .1 22.4 2.4 52.4 4.6 57.6 1 2.5 2.1 8.4 2.5 13 .4 5 1.4 9.9 2.5 12.1 1 2 2.1 6.1 2.5 9 .4 2.9 1.5 6.6 2.6 8.3 1 1.7 2.1 5.4 2.4 8.1.4 2.7 1.5 5.9 2.5 7.2 1 1.3 2.1 4.3 2.5 6.7.3 2.4 1.5 5.2 2.5 6.1 1 .9 1.9 3 1.9 4.5 0 1.6 1.1 4 2.5 5.5s2.5 3.6 2.5 4.8c0 1.2.7 3.2 1.5 4.6.8 1.4 2.3 4.3 3.3 6.5 1.1 2.2 2.7 4.6 3.6 5.4.9.7 1.6 2.4 1.6 3.7 0 1.3 1.1 3.3 2.4 4.6 1.3 1.3 2.6 3.5 3 4.9.3 1.4 1.6 3.7 2.8 5.2 4.6 5.3 6.5 8.3 7.2 10.9.3 1.5 1.5 3.2 2.6 3.8 1.1.6 2 1.7 2 2.6 0 .8.7 1.7 1.6 2.1.8.3 3.3 3.3 5.4 6.7 2.1 3.3 5.8 8.3 8.2 11 7.7 8.7 41.5 42 45.3 44.6 2 1.4 6.2 4.5 9.3 7 3.1 2.5 7.5 5.7 9.7 7.1 7.5 4.9 9 5.8 14 9.4 2.8 1.9 5.5 3.5 6.2 3.5.6 0 2.4 1.1 4 2.4 1.6 1.4 4.2 2.8 5.7 3.2 1.5.3 3 1.3 3.3 2 .3.8 2.5 1.9 5 2.6 2.5.6 4.7 1.7 5 2.5.3.7 2.5 1.8 4.9 2.4 2.3.6 5 2 6 3 .9 1 2.7 1.9 3.9 1.9 1.2 0 4.2 1 6.6 2.3 2.4 1.3 5.9 2.7 7.7 3 1.9.4 4.6 1.5 6 2.6 1.5 1 4.9 2.2 7.6 2.6 2.7.3 6.1 1.5 7.5 2.5 1.5 1 5.3 2 8.7 2.4 3.4.3 7.7 1.4 9.5 2.5 2 1.1 6.4 2.1 10.7 2.5 4 .3 10 1.5 13.2 2.6 5.6 1.9 8.7 2 57.4 2 48.1 0 51.8-.1 57.7-2 3.5-1 9.8-2.3 14-2.8 4.1-.5 9-1.7 10.8-2.7 1.8-.9 5.9-1.9 9-2.2 3.1-.3 7-1.4 8.6-2.4 1.7-1 5.1-2.1 7.5-2.5 2.5-.3 5.7-1.5 7.2-2.5 1.5-1.1 4.2-2.2 6-2.6 1.8-.3 5.3-1.7 7.7-3 2.4-1.3 5.3-2.3 6.3-2.3s3.6-1.1 5.6-2.5c2-1.4 4.4-2.5 5.2-2.5.9 0 3.1-1.1 5-2.5s4.4-2.5 5.5-2.5c1.2 0 3-.9 4-2s2.7-2.2 3.9-2.6c1.1-.4 3.4-1.7 4.9-3 1.6-1.3 3.6-2.4 4.6-2.4 1 0 2.6-.9 3.6-2s2.7-2.2 3.9-2.6c1.1-.4 4.4-2.6 7.2-5s5.6-4.4 6.2-4.4c.6 0 4-2.4 7.6-5.2 3.6-2.9 8.2-6.5 10.1-8 6.9-5.1 25-22 33.2-31 .7-.7 1.8-1.9 2.5-2.5 5-4.8 15.8-18.3 15.8-19.8 0-.6 1.2-2.2 2.8-3.7 5.9-5.7 6.2-6.1 11.8-16.6 1-1.7 2.3-3.2 2.9-3.2.7 0 1.9-1.7 2.9-3.8 2.5-5.7 4.7-9.5 6.6-11.7 1-1.1 2.3-3.6 2.9-5.7.7-2 1.8-3.9 2.6-4.2.8-.3 1.8-2.4 2.1-4.6.4-2.4 1.4-4.5 2.4-5 1.1-.6 2.1-2.7 2.5-5 .4-2.4 1.4-4.4 2.6-5 1-.6 1.9-2.1 1.9-3.4 0-1.2 1.1-4.5 2.5-7.2s2.8-6.5 3.1-8.4c.4-1.9 1.3-4.2 2-5.1.8-.8 1.9-4.2 2.5-7.5.7-3.2 1.8-6.7 2.6-7.6.8-.9 1.9-5.1 2.4-9.3.5-4.1 1.8-9.2 2.8-11.3 1.1-2.2 2.2-7.1 2.6-12 .4-4.7 1.5-10.2 2.6-12.5 1.7-3.9 1.9-7.2 1.9-52.9 0-45.4-.1-48.9-1.9-53-1-2.4-2.2-8.2-2.6-12.8-.4-4.6-1.6-10.4-2.7-12.9-1-2.4-2.1-7.2-2.4-10.5-.4-3.4-1.4-7.5-2.4-9.2-1-1.7-2.1-5.1-2.5-7.5-.4-2.4-1.6-5.5-2.5-6.9-1-1.4-2.2-4.4-2.6-6.5-.4-2.2-1.3-4.9-2-6.1-.8-1.1-2-4.2-2.8-6.8-.8-2.6-2.1-5.5-2.9-6.4-.8-1-2-3.6-2.6-5.8-.6-2.3-1.7-4.4-2.5-4.7-.7-.3-1.8-2.5-2.4-5-.7-2.5-1.8-4.7-2.6-5-.7-.3-1.6-1.7-2-3.1-.7-2.9-7-13.1-8.6-14.1-.5-.3-1-1.7-1-3 0-1.5-1-3.1-2.5-4.1-1.4-.9-2.5-2.2-2.5-2.9 0-.7-.7-1.8-1.6-2.5-.8-.8-2.3-3-3.3-5.1-2-4-2.2-4.3-9.8-12.7-2.9-3.1-5.3-6.1-5.3-6.6 0-1-8.4-10.9-15-17.8-2.5-2.6-5-5.3-5.6-6-1.7-2-16.5-15.4-19.9-17.9-1.6-1.3-4.8-3.8-7-5.7-6.9-5.8-9.2-7.6-12.9-10.2-2-1.4-5.3-3.7-7.3-5.3-2-1.5-4.1-2.7-4.7-2.7-.6 0-1.9-.8-2.7-1.8-.9-.9-2.9-2.5-4.5-3.4-1.6-1-3.6-2.2-4.4-2.7-.8-.5-2.6-1.4-4-2.1-1.4-.6-4.7-2.4-7.5-4.1-2.7-1.6-6.9-3.7-9.1-4.8-2.3-1.1-4.5-2.4-4.8-3-.4-.6-2.6-1.6-4.9-2.2-2.3-.6-5.3-1.9-6.7-2.9-1.4-1-4.1-2.1-6-2.5-1.9-.4-4.4-1.5-5.5-2.5-1.1-.9-4-2-6.5-2.4-2.4-.4-5.8-1.5-7.5-2.5-1.6-1.1-5-2.2-7.4-2.6-2.4-.4-5.8-1.5-7.5-2.5-1.7-1-5.7-2.1-8.9-2.5-3.2-.3-7.7-1.5-10-2.5s-7.7-2.1-11.9-2.4c-4.3-.4-9.7-1.4-12-2.3-2.9-1-11.7-2-26.3-2.9-25.8-1.5-30.3-1.5-57.5.1zm63.7 42.4c3.2 1.1 9.9 2.2 15 2.5 5.2.3 11.2 1.4 14 2.4 2.6 1.1 7.4 2.2 10.5 2.6 3.1.3 7.2 1.5 9 2.5 1.8 1 5.3 2.2 7.8 2.5 2.4.4 5.2 1.4 6.2 2.3.9.8 3.8 1.9 6.3 2.4 2.6.5 5.8 1.8 7.2 2.9 1.4 1.1 3.6 2 4.8 2 1.2 0 3.4.9 4.9 2.1 1.4 1.1 4.3 2.5 6.2 3.1 2 .5 4.6 1.8 5.7 2.9 1.2 1 2.9 1.9 3.8 1.9 1 0 3 1.1 4.6 2.4 1.6 1.4 4.1 2.8 5.5 3.1 1.5.4 3.4 1.5 4.4 2.6.9 1 2.3 1.9 3.1 1.9.7 0 2.2.9 3.2 1.9 1.1 1.1 3.3 2.7 4.8 3.6 1.5.9 4.6 2.9 6.8 4.6 2.2 1.6 5.2 3.8 6.6 4.7 10.6 7 49.5 44.6 52.9 51.1 1 2 3.7 5.6 5.9 8.1 2.3 2.4 4.4 5.2 4.7 6.2.3 1 1 1.8 1.5 1.8s1.8 2 2.9 4.5c1.1 2.5 2.4 4.5 3 4.5.5 0 1.7 1.5 2.5 3.2 3.2 6.6 5.4 10.3 7.3 12.3 1.1 1.1 2.2 3.5 2.6 5.4.3 1.9 1.5 4 2.5 4.7 1 .7 2.1 3 2.4 5.1.4 2.1 1.5 4.3 2.5 5 1.2.7 2.1 2.7 2.5 5.2.3 2.2 1.4 5.2 2.6 6.7 1.1 1.4 2.3 4.2 2.7 6.3.3 2 1.4 4.7 2.4 6.1 1 1.4 2.1 4.6 2.5 7 .4 2.5 1.5 6 2.6 7.8 1 1.8 2.1 6.3 2.5 10 .3 3.7 1.5 8.4 2.5 10.5 1.2 2.4 2.2 7.6 2.8 14 .5 5.6 1.7 13.3 2.7 17.2 1.3 5.6 1.7 11.7 1.7 30.5 0 20.3-.2 24.8-2.1 33-1.1 5.2-2.3 13.2-2.6 17.6-.3 5.4-1.2 9.3-2.4 11.5-1.1 1.9-2.3 6.4-2.6 10.3-.4 3.7-1.6 8.5-2.6 10.6-1.1 2.1-2.2 5.7-2.6 7.9-.4 2.2-1.4 5-2.4 6.1-1 1.1-2.1 4-2.4 6.5-.4 2.4-1.6 5.5-2.8 7-1.1 1.4-2.2 4.4-2.5 6.6-.4 2.3-1.3 4.4-2.3 4.9-1 .5-2.1 2.6-2.5 4.7-.4 2-1.8 4.7-3.1 6-1.3 1.2-2.4 3.2-2.4 4.4 0 1.1-1.1 3.4-2.5 5.1-1.4 1.6-2.5 3.5-2.5 4.1 0 .7-1.8 3.7-4 6.7s-4.7 7.1-5.6 9c-.9 1.9-2.6 4.5-3.8 5.7-1.1 1.2-3.1 3.2-4.3 4.5-1.3 1.3-2.3 2.9-2.3 3.5 0 1.2-8.1 11.5-12.9 16.5-3.7 3.8-5 5.1-6.4 6.6-.6.7-1.8 1.8-2.5 2.5l-2.5 2.5-2.5 2.5-2.5 2.5c-1.3 1.5-1.8 1.9-8.4 8.2-7.3 6.9-18.4 16-19.5 16-.6 0-2.1 1-3.3 2.2-2.5 2.6-6.3 5.3-14.5 10.3-3 1.9-6.2 4.1-7.1 4.9-.9.9-2 1.6-2.6 1.6-.5 0-3 1.3-5.4 3-2.4 1.6-5.1 3-6 3-.9 0-2.3.8-3.3 1.8-.9 1.1-3.4 2.4-5.5 3.1-2.1.6-4.4 1.8-5.1 2.6-.7.8-2.8 1.7-4.9 2.1-2 .4-4.8 1.5-6.2 2.5-1.4 1-4.5 2.2-6.8 2.8-2.3.5-5 1.6-5.9 2.5-1 .8-3.8 1.8-6.2 2.2-2.5.4-6.1 1.5-8 2.4-1.9 1-6.5 2.2-10.2 2.8-3.6.6-7.7 1.7-9 2.6-1.4.9-5.9 1.8-11.3 2.2-5.4.4-11 1.5-14 2.7-4.7 1.9-7.1 2.1-39.5 2.1-33 .1-34.8 0-40.5-2.1-3.3-1.2-9.5-2.4-13.8-2.7-4.5-.3-9.3-1.4-11.5-2.4-2-1.1-6.3-2.2-9.5-2.6-3.2-.3-7.5-1.5-9.5-2.5s-5.7-2.1-8.2-2.5c-2.4-.4-5.2-1.4-6.2-2.2-.9-.9-3.6-2-5.9-2.5-2.3-.6-5.4-1.8-6.8-2.8-1.4-1-4.2-2.1-6.2-2.5-2.1-.4-4.2-1.3-4.9-2.1-.6-.8-2.8-1.9-4.8-2.6-2-.7-4.7-2-6-3-1.3-1-3.6-2-5.1-2.4-1.6-.3-3.7-1.5-4.7-2.6-.9-1-2.3-1.9-3.1-1.9-.7 0-2.3-1.1-3.4-2.5-1.2-1.3-3.5-2.7-5-3-1.6-.4-3.1-1.1-3.5-1.6-.3-.5-2.2-2.1-4.2-3.4-2.1-1.4-5.3-3.6-7.2-5-1.9-1.4-4.8-3.4-6.3-4.4-2.5-1.7-7.3-5.6-15.6-13.1-7.3-6.5-17.2-16.4-23.1-23-3.6-3.9-8.5-9.3-11-11.8-4.4-4.5-7.2-8.4-10.6-15-1-1.7-2.3-3.2-3-3.2-.7 0-1.6-.9-1.9-2-.4-1.1-1.7-3.2-2.9-4.8-1.3-1.5-2.7-3.8-3.1-5.2-.4-1.4-1.6-3.1-2.5-3.7-1-.7-2.1-2.5-2.5-4-.3-1.4-1.7-4-3.1-5.6-1.3-1.6-2.4-3.3-2.4-3.9 0-.5-.9-2.2-1.9-3.7-1.1-1.5-2.3-4-2.7-5.6-.4-1.6-1.8-4.4-3.1-6.3-1.2-1.9-2.3-4.3-2.3-5.2 0-1-.8-2.8-1.8-4.1-1.1-1.3-2.2-4.1-2.5-6.2-.3-2-1.5-5-2.6-6.6-1.2-1.6-2.4-5.1-2.8-7.8-.3-2.6-1.5-5.9-2.5-7.3-1-1.4-2.1-4.8-2.4-7.5-.3-2.8-1.4-6.9-2.4-9.1-1.1-2.3-2.2-7.7-2.5-12-.4-4.4-1.6-11.7-2.8-16.4-2-7.9-2.2-10.8-2.2-40 0-29.3.2-32 2.2-39 1.2-4.1 2.4-11.5 2.8-16.4.4-5.4 1.3-10 2.3-11.4.8-1.3 2.1-5.7 2.8-9.9.8-4.2 2-8.3 2.7-9.2.8-.9 1.7-3.6 2.1-6 .4-2.4 1.5-5.6 2.6-7.1s2.2-4.7 2.6-7.1c.4-2.4 1.5-5.2 2.5-6.2 1.1-1 1.9-2.8 1.9-4.1 0-1.3.9-3.5 2-4.9 1.2-1.4 2.6-4.1 3.2-5.9.6-1.8 1.9-4.4 2.8-5.8 1-1.4 2.1-3.6 2.5-5 .4-1.4 1.8-3.5 3.1-4.7 1.3-1.2 2.4-3.2 2.4-4.5 0-1.2.9-3.1 2-4.3 2.6-2.6 8-10.7 8-12.1 0-.6 1-2 2.3-3.1 1.2-1.2 3.2-3.6 4.5-5.5 6.2-8.9 10.7-14.6 15.1-19.2l2.4-2.4c.6-.7 1.8-1.8 2.5-2.5l2.5-2.5c13.8-14.5 29.9-29.1 40.2-36.2 5.7-4 10.3-7.3 14.2-10.3 1.9-1.5 4.4-2.7 5.4-2.7s2.4-.8 3.1-1.9c.7-1 2.4-2.2 3.8-2.6 1.4-.4 3.2-1.3 4-2 2.3-2 14.8-8.5 16.4-8.5.7 0 2.4-.8 3.7-1.9 1.4-1 4.2-2.4 6.3-2.9 2.1-.6 4.6-1.8 5.6-2.7 1-.9 3.5-1.9 5.6-2.2 2.2-.4 5.9-1.7 8.3-3 2.4-1.3 5.7-2.3 7.4-2.3 1.6 0 4.4-.9 6.2-2 1.7-1.1 6.1-2.4 9.6-2.9s8.1-1.7 10.2-2.5c2.1-.9 8.1-1.9 13.5-2.3 5.3-.3 12-1.4 14.7-2.4 4.4-1.6 8.7-1.8 33.7-1.9 25.7 0 29.4.2 34.5 1.9z"/><path d="M343 203.6V322c0 65.9-.4 118.1-.9 118.9-.5.7-3.7 3-7.2 5-5 2.9-6.7 4.5-7.6 7.1-2 5.9-1.6 11.2 1.2 15 3.8 5.2 4.6 14 1.2 14-.7 0-2.4 1.5-3.9 3.3-5.5 6.5-8.8 11-8.8 12 0 .5-1.2 2.4-2.7 4.2-1.6 1.8-4.6 5.3-6.8 7.9-2.2 2.6-4.8 6.5-5.7 8.7-.9 2.1-2.2 3.9-2.8 3.9-.6 0-1.6 1.1-2.2 2.5-.6 1.4-1.7 2.5-2.5 2.5-.7 0-1.3.4-1.3.8 0 2.2-9 14.9-13.7 19.4-1.3 1.2-2.3 2.7-2.3 3.3 0 1.3-4.6 7.7-7.9 11.1-1.2 1.2-2.1 2.5-2.1 2.9 0 .4-1 1.8-2.2 3-1.3 1.2-3.8 4.8-5.7 7.9-1.9 3.1-4.2 6.1-5.3 6.7-1 .5-1.8 1.5-1.8 2.2 0 .7-1.2 2.3-2.5 3.6-1.4 1.3-2.5 2.9-2.5 3.5 0 .7-.9 2.1-1.9 3-1.1 1-2.5 3.1-3.1 4.7-.7 1.6-1.8 2.9-2.6 2.9-.7 0-1.9 1-2.5 2.2-.6 1.2-2 3.1-3 4.2-1.1 1.1-1.9 2.7-1.9 3.5 0 .9-2.2 4-4.8 6.9-6.4 7.2-9.1 10.7-9.9 12.8-.6 1.8-4 6.3-8.2 10.9-.9 1.1-3.4 4.5-5.4 7.5-5.2 7.7-7.6 10.8-12.1 15.2-4.3 4.2-4.2 6.3.2 7.3 1.7.3 3.8 1.5 4.8 2.6.9 1 2.3 1.9 3 1.9.7 0 2.6 1.1 4.2 2.5 1.7 1.4 3.4 2.5 3.9 2.5.4 0 2.5 1.1 4.4 2.4 2 1.4 4.8 2.8 6.2 3.1 1.4.4 3.3 1.5 4.3 2.6.9 1 2.5 1.9 3.4 1.9 1 0 3.3 1.1 5.2 2.3 1.9 1.3 5.1 2.7 7.2 3 2.2.3 4.8 1.5 6 2.5 1.2 1.1 4.1 2.2 6.6 2.6 2.5.4 5.6 1.4 7 2.3 1.4.9 5.4 2.2 9 2.9 3.6.7 8.5 1.9 11 2.8 2.5.8 7.7 1.9 11.5 2.5 3.9.5 9.9 1.7 13.4 2.6 5.5 1.4 11.3 1.6 39.5 1.3 28.6-.3 33.7-.6 37.6-2.1 2.4-1 7.8-2 12-2.4 4.1-.3 9.1-1.4 11-2.3 1.9-1 6.2-2.1 9.5-2.5 3.3-.4 7.1-1.6 8.5-2.5 1.4-1 4.4-2.1 6.5-2.5 2.2-.4 5.3-1.6 6.8-2.7 1.6-1.1 4.5-2.2 6.5-2.5 2-.3 4.6-1.4 5.7-2.4 1.1-.9 3.4-2.1 5-2.5 1.7-.3 3.9-1.4 5-2.4 1.1-.9 3.5-2.2 5.3-2.8 1.8-.6 4.5-2 5.9-3.2 1.4-1.1 3.1-2 3.8-2 .7 0 1.9-.7 2.6-1.7.8-.9 2.8-2.2 4.4-3 2.8-1.3 7.1-4.1 12-7.8 1.1-.9 3.8-2.9 6-4.5 7.9-5.7 10.1-7.7 26.3-24 19.3-19.5 18.8-19 23.5-26 2.1-3 4.5-6.6 5.4-8 .9-1.4 2.5-3.4 3.4-4.5 1-1.1 2-3.2 2.4-4.6.4-1.5 1.8-3.6 3.1-4.8 1.3-1.1 2.4-2.7 2.4-3.5 0-.7.9-2.4 1.9-3.8 1.1-1.3 2.3-3.6 2.6-5.1.4-1.4 1.3-3.1 2-3.7.8-.7 2.1-3.3 3-6 .9-2.7 2.2-5.4 3-6 .8-.6 1.7-3.3 2.1-5.8.4-2.6 1.4-5.5 2.4-6.4 1-.9 2.1-3.8 2.5-6.5.4-2.6 1.4-5.6 2.3-6.6.8-.9 2.1-5.5 2.8-10.3.7-4.7 1.9-9.3 2.7-10.2 1-1.1 1.7-5.3 2.2-11.7.4-5.8 1.5-12 2.6-14.8 1.7-4.3 1.9-7.7 1.9-32.5s-.2-28.2-1.9-32.7c-1.1-2.8-2.2-9.3-2.6-14.5-.5-6.2-1.4-10.6-2.5-12.5-1-1.7-2.1-5.9-2.5-9.5-.3-3.6-1.5-7.9-2.5-9.5-1-1.7-2.1-4.9-2.5-7.2-.4-2.3-1.5-5.3-2.6-6.7-1-1.3-1.9-3.7-1.9-5.4 0-1.6-.9-4.1-2.1-5.6-1.1-1.4-2.5-4.3-3.1-6.2-.5-2-1.8-4.6-2.9-5.7-1-1.2-1.9-2.9-1.9-3.8 0-1-1.1-3-2.5-4.5s-2.5-3.7-2.5-4.9c0-1.2-1.3-3.6-3-5.3-1.6-1.8-3-3.6-3-4.1 0-1.1-3.9-7.3-7.1-11.1-3.6-4.4-7.3-9.6-9.9-13.8-1.4-2.3-3.3-4.4-4.2-4.7-1-.4-1.8-1-1.8-1.5 0-1.9-28.8-29.5-35.4-33.9-6.4-4.3-8.2-5.7-9.4-7.3-.7-1-1.9-1.8-2.7-1.8-.7 0-2.6-1.1-4.2-2.4-1.5-1.3-3.8-2.6-4.9-3-1.2-.4-2.9-1.5-3.9-2.6s-2.4-2-3.1-2c-.7 0-2.5-1.1-4.1-2.4-1.5-1.3-4.2-2.6-5.9-3-1.8-.4-4-1.6-5-2.7-.9-1-2.7-1.9-4-1.9-1.2 0-3.5-1.1-5.1-2.3-1.5-1.3-4.5-2.7-6.6-3-2-.3-4.9-1.5-6.4-2.6-1.4-1.2-4-2.1-5.8-2.1-1.8 0-5.2-1.1-7.6-2.3-2.4-1.3-6.8-2.7-9.8-3.1-3-.4-7-1.5-9-2.5-2.2-1.1-7.1-2.1-12.6-2.5-4.9-.3-11.2-1.3-14-2.2-5.5-1.8-31.5-3.2-31.5-1.8z"/></g></svg>